<svg xmlns="http://www.w3.org/2000/svg" width="1469" height="1733" viewBox="0 0 1469 1733">
  <defs>
    <style>
      .cls-1 {
        fill: #08060b;
        fill-rule: evenodd;
      }
    </style>
  </defs>
  <path id="mr-1" class="cls-1" d="M252.826,1362.26a4,4,0,0,1-.793,2.51l-12.279,12.28c-0.792.79-1.76,0.61-2.905-.53a1.5,1.5,0,0,1-.528-0.79l-16.9-38.03a4.863,4.863,0,0,1-.462-2.44,3.6,3.6,0,0,1,1.123-2.44l12.279-12.28c0.879-.88,1.716-0.93,2.509-0.14a2.532,2.532,0,0,1,.792,1.06l16.9,38.03A6.25,6.25,0,0,1,252.826,1362.26Zm-37.235,74.07a11.964,11.964,0,0,0,8.451,3.57q5.016,0.135,9.242-4.1l52.419-52.41a17.944,17.944,0,0,0,3.631-5.62,36.917,36.917,0,0,0,2.311-7.46,38.99,38.99,0,0,0,.792-7.65,15.072,15.072,0,0,0-1.057-6.08l-40.667-91.37-0.924-1.19a12.747,12.747,0,0,0-4.027-2.7,16.731,16.731,0,0,0-4.82-1.26,13.131,13.131,0,0,0-4.885.4,9.1,9.1,0,0,0-4.093,2.38l-52.419,52.41a28.275,28.275,0,0,0-7.592,13.27,21.281,21.281,0,0,0,1.122,14.33l39.744,89.39a18.625,18.625,0,0,0,2.772,4.09h0Zm126.756-109.59-35.782-80.41,16.636-16.64-0.792,46.48,3.433,7.4,28.124-28.13c0.264-1.49.594-3.85,0.99-7.06s0.747-6.95,1.056-11.23q0.462-6.39.727-13.79t-0.066-14.73q-0.332-7.32-1.123-14.06a54.52,54.52,0,0,0-2.508-11.62,9.419,9.419,0,0,0-1.585-2.9,30.289,30.289,0,0,0-2.244-2.51,35.739,35.739,0,0,0-6.8-5.35,24.355,24.355,0,0,0-7.2-2.97,15.91,15.91,0,0,0-6.932-.06,11.915,11.915,0,0,0-6.008,3.36l-67.207,67.21,53.739,120.55Zm120.417-120.42-59.284,59.29-53.739-120.55,65.622-65.62,17.957,40.14L401.5,1151.4l2.377,5.54,31.821-31.82,12.543,27.86-31.821,31.82,4.754,10.83,31.82-31.82Zm4.754-179.04,43.44,41.59-26.276-58.75L509.9,984.9,563.64,1105.45l-41.327,41.33-43.308-41.73,26.143,58.89-25.219,25.22L426.19,1068.61Zm140.487,33.8-35.782-80.407,16.636-16.636-0.792,46.473,3.433,7.4,28.124-28.126q0.4-2.241.99-7.064T621.67,971.5q0.462-6.4.727-13.8t-0.066-14.722q-0.332-7.326-1.123-14.062A54.483,54.483,0,0,0,618.7,917.3a9.4,9.4,0,0,0-1.585-2.905,30.768,30.768,0,0,0-2.244-2.509,35.367,35.367,0,0,0-6.8-5.347,24.279,24.279,0,0,0-7.2-2.971,16.051,16.051,0,0,0-6.932-.066,11.98,11.98,0,0,0-6.008,3.367l-67.207,67.206,53.739,120.549ZM728.422,940.666l-59.284,59.285L615.4,879.4l65.622-65.622,17.957,40.139-31.821,31.821,2.377,5.545,31.821-31.821,12.543,27.86-31.821,31.821,4.754,10.827,31.82-31.821Zm4.754-179.042,43.44,41.592L750.34,744.459l25.219-25.219L829.3,839.79l-41.327,41.327-43.308-41.723,26.143,58.888L745.587,923.5,691.848,802.952ZM872.87,742.215a3.976,3.976,0,0,1-.792,2.508l-14.26,14.26-19.673-44.232,14.26-14.26a1.573,1.573,0,0,1,2.508-.132,2.5,2.5,0,0,1,.793,1.056l16.9,38.027A6.244,6.244,0,0,1,872.87,742.215Zm36.509,15.514a36.852,36.852,0,0,0,2.31-7.46,39.1,39.1,0,0,0,.793-7.658,15.072,15.072,0,0,0-1.057-6.074l-40.667-91.369-0.924-1.189a12.746,12.746,0,0,0-4.027-2.706,16.7,16.7,0,0,0-4.82-1.255,13.088,13.088,0,0,0-4.885.4,9.172,9.172,0,0,0-4.093,2.377l-65.623,65.622,53.739,120.55,65.623-65.622A17.947,17.947,0,0,0,909.379,757.729Zm43.176-117.777a202.76,202.76,0,0,1-1.123-21.588l14.392,32.085-10.563,10.563Q953.677,650.454,952.555,639.952ZM914.2,580.6a35.078,35.078,0,0,0-2.047,5.611,36.248,36.248,0,0,0-1.122,7.328q1.188,28.39,2.9,59.153t4.225,63.642l10.7,23.9L1009.79,659.3l-53.736-120.55Zm94.012-94.01,43.44,41.591-26.28-58.756,25.22-25.219,53.74,120.549L1063,606.085l-43.3-41.724,26.14,58.889-25.22,25.219-53.739-120.55Zm129.53,44.76-35.79-80.41-23.89,23.9-10.3-47.8,69.98-69.98,17.95,40.14-19.93,19.937,35.78,80.411ZM361.78,1582.79a11.955,11.955,0,0,0,8.451,3.56q5.016,0.135,9.242-4.09l52.419-52.42a18.007,18.007,0,0,0,3.631-5.61,36.852,36.852,0,0,0,2.31-7.46,38.939,38.939,0,0,0,.793-7.66,15.106,15.106,0,0,0-1.057-6.08l-16.24-36.31L393.6,1494.45l5.15,11.49a5.15,5.15,0,0,1,.4,3.04,4.114,4.114,0,0,1-.925,2.24l-12.279,12.28c-0.792.79-1.76,0.62-2.9-.53a1.46,1.46,0,0,1-.528-0.79l-16.9-38.03a4.842,4.842,0,0,1-.462-2.44,3.6,3.6,0,0,1,1.123-2.44l12.279-12.28c0.879-.88,1.716-0.93,2.509-0.13a2.529,2.529,0,0,1,.792,1.05l3.565,8.32,27.728-27.73L396.9,1411.67l-0.924-1.19a12.608,12.608,0,0,0-4.027-2.71,16.4,16.4,0,0,0-4.82-1.25,12.923,12.923,0,0,0-4.885.39,9.192,9.192,0,0,0-4.093,2.38l-52.419,52.42a28.219,28.219,0,0,0-7.592,13.27,21.252,21.252,0,0,0,1.122,14.32l39.743,89.39a19.032,19.032,0,0,0,2.773,4.1h0Zm164.98-163.14a36.359,36.359,0,0,1-3.1,16.31,21,21,0,0,1-4.225,6.34l-52.418,52.42a11.2,11.2,0,0,1-8.583,3.3,11.534,11.534,0,0,1-8.186-3.17,10.108,10.108,0,0,1-1.849-2.64l-47.269-105.9,33.67-33.66,36.178,81.07a3.238,3.238,0,0,0,.792,1.05q1.455,1.455,2.641.27l12.279-12.28a4,4,0,0,0,.792-2.51,6.216,6.216,0,0,0-.264-2.77l-36.178-81.08,27.728-27.72,46.345,103.91A18.339,18.339,0,0,1,526.76,1419.65Zm49.844-34.52-15.448-71.44,36.97,49.91,30.236-30.23-9.242-77.64,26.8,60.08,27.86-27.86L620.044,1167.4l-41.195,41.19,9.638,83.85-40.4-53.08L512.3,1275.14l29.708,144.58ZM684.61,1277.12l-53.739-120.55,33.67-33.67,20.333,45.69,16.241-16.24-20.334-45.69,27.728-27.73,53.739,120.55-27.728,27.73-20.862-47-16.24,16.24,20.862,47Zm160.359-175.67a36.351,36.351,0,0,1-3.1,16.3,20.875,20.875,0,0,1-4.225,6.34l-52.419,52.42a11.2,11.2,0,0,1-8.582,3.3,11.49,11.49,0,0,1-8.186-3.17,9.92,9.92,0,0,1-1.849-2.64l-47.269-105.89,33.669-33.67,36.178,81.07a3.26,3.26,0,0,0,.793,1.05q1.454,1.455,2.64.27l12.28-12.28a4,4,0,0,0,.792-2.51,6.235,6.235,0,0,0-.264-2.77l-36.178-81.07,27.727-27.732,46.345,103.912A18.328,18.328,0,0,1,844.969,1101.45Zm50.108-34.8L859.3,986.243,875.4,970.135l-0.264,45.945,0.66,1.19a18.7,18.7,0,0,0,1.321,1.85,11.186,11.186,0,0,0,3.7,2.38,33.621,33.621,0,0,1,4.093,1.98l43.044,10.3,37.366-37.37-56.907-13.6,0.528-46.477a13.105,13.105,0,0,0-1.255-5.744q-1.386-3.23-2.046-4.951l-0.924-1.98a16.971,16.971,0,0,0-3.7-5.282,28.786,28.786,0,0,0-6.271-4.687,27.544,27.544,0,0,0-7.394-2.9,20.508,20.508,0,0,0-7.262-.4,10.175,10.175,0,0,0-6.008,2.971L807.8,979.641l53.74,120.549ZM1040.19,867.542a4,4,0,0,1-.8,2.509l-12.28,12.279c-0.79.792-1.76,0.617-2.9-.528a1.49,1.49,0,0,1-.53-0.792l-16.9-38.027a4.811,4.811,0,0,1-.46-2.442,3.569,3.569,0,0,1,1.12-2.443l12.28-12.28a1.575,1.575,0,0,1,2.51-.132,2.462,2.462,0,0,1,.79,1.057l16.9,38.026A6.273,6.273,0,0,1,1040.19,867.542Zm-37.24,74.073a11.939,11.939,0,0,0,8.45,3.565q5.025,0.132,9.24-4.093l52.42-52.419a17.829,17.829,0,0,0,3.63-5.612,36.414,36.414,0,0,0,2.31-7.46,38.881,38.881,0,0,0,.8-7.658,15.12,15.12,0,0,0-1.06-6.074L1038.07,770.5l-0.92-1.188a12.74,12.74,0,0,0-4.03-2.707,16.689,16.689,0,0,0-4.82-1.254,13.019,13.019,0,0,0-4.88.4,9.2,9.2,0,0,0-4.1,2.376l-52.415,52.419a28.243,28.243,0,0,0-7.592,13.27,21.267,21.267,0,0,0,1.122,14.326l39.745,89.388a18.613,18.613,0,0,0,2.77,4.094h0Zm80.81-237.931,43.44,41.592-26.28-58.756,25.22-25.219,53.74,120.549-41.33,41.328-43.31-41.724,26.15,58.888-25.22,25.219-53.74-120.549Zm130.65-32.943a202.507,202.507,0,0,1-1.12-21.588l14.39,32.085L1217.11,691.8Q1215.535,681.242,1214.41,670.741Zm-38.36-59.35A35.867,35.867,0,0,0,1174,617a36.675,36.675,0,0,0-1.12,7.328q1.185,28.39,2.91,59.153t4.22,63.641l10.7,23.9,80.94-80.938-53.74-120.55Zm129,45.288-35.78-80.41-23.9,23.9-10.3-47.8,69.98-69.979,17.96,40.139-19.94,19.937,35.78,80.411ZM523.55,1675.1c1.145,1.15,2.112,1.32,2.9.53l12.28-12.28a3.981,3.981,0,0,0,.792-2.51,6.235,6.235,0,0,0-.264-2.77l-16.9-38.03a2.529,2.529,0,0,0-.792-1.05,1.575,1.575,0,0,0-2.509.13l-12.279,12.28a3.592,3.592,0,0,0-1.122,2.44,4.821,4.821,0,0,0,.462,2.44l16.9,38.03a1.464,1.464,0,0,0,.529.79h0Zm61.2-20.79a36.387,36.387,0,0,1-3.1,16.3,20.875,20.875,0,0,1-4.225,6.34L525,1729.37a11.2,11.2,0,0,1-8.582,3.3,11.494,11.494,0,0,1-8.187-3.17,9.941,9.941,0,0,1-1.848-2.64l-40.667-91.37a26.42,26.42,0,0,1-.6-6.53,46.111,46.111,0,0,1,.793-7.66,37.934,37.934,0,0,1,2.046-7.2,15.479,15.479,0,0,1,3.3-5.28l52.419-52.42q4.62-4.62,9.044-5.35a8.472,8.472,0,0,1,7.724,2.58,14.89,14.89,0,0,1,2.9,4.22l39.743,89.39A18.372,18.372,0,0,1,584.749,1654.31Zm-31.557-121.74a28.267,28.267,0,0,1,7.592-13.27l64.566-64.57,17.957,40.14-41.988,41.99a3.616,3.616,0,0,0-1.122,2.44,4.892,4.892,0,0,0,.462,2.45l1.056,2.64,32.349-32.35a20.3,20.3,0,0,1,7,2.9q4.224,2.52,9.111,6.08c3.257,2.38,6.624,4.9,10.1,7.59s6.754,5.13,9.836,7.33l0.529,0.52a16.15,16.15,0,0,1,2.244,3.04,27.337,27.337,0,0,1,1.585,2.91,32.076,32.076,0,0,1,2.508,11.09,55.684,55.684,0,0,1-.66,12.67,57.249,57.249,0,0,1-3.235,11.82,24.474,24.474,0,0,1-5.083,8.38l-53.475,53.48q-4.227,4.23-9.243,4.09a11.913,11.913,0,0,1-8.45-3.56,18.775,18.775,0,0,1-2.773-4.1l-39.743-89.38A21.28,21.28,0,0,1,553.192,1532.57Zm74.138,26.6-13.071,13.08,2.9,6.86,16.24-16.24Zm66.811,1.06-2.773-171.51,28.388-28.39,8.715,165.57Zm53.079-169.27,32.877-32.88-10.827,79.49a19.557,19.557,0,0,0,.924,4.22,26.461,26.461,0,0,0,1.321,3.57q1.584,3.705,3.829,7.92a43.422,43.422,0,0,0,4.885,7.4,16.458,16.458,0,0,0,5.216,4.42,3.887,3.887,0,0,0,4.819-.99l71.168-71.17-16.109-36.18-34.065,34.07,10.3-85.03a35.013,35.013,0,0,0-.991-4.03,24.211,24.211,0,0,0-1.254-3.5,18.209,18.209,0,0,0-5.348-6.4,25.189,25.189,0,0,0-8.054-4.23,20.826,20.826,0,0,0-8.78-.86,12.263,12.263,0,0,0-7.394,3.57l-60.473,60.47Zm135.866-75.39c1.145,1.14,2.112,1.32,2.9.53l12.279-12.28a4,4,0,0,0,.792-2.51,6.283,6.283,0,0,0-.264-2.78l-16.9-38.02a2.472,2.472,0,0,0-.792-1.06,1.574,1.574,0,0,0-2.508.13l-12.28,12.28a3.619,3.619,0,0,0-1.122,2.45,4.863,4.863,0,0,0,.462,2.44l16.9,38.02a1.474,1.474,0,0,0,.528.8h0Zm61.2-20.8a35.216,35.216,0,0,1-.594,8.25,35.61,35.61,0,0,1-2.509,8.06,21.125,21.125,0,0,1-4.225,6.34l-52.419,52.41a11.206,11.206,0,0,1-8.582,3.31,11.533,11.533,0,0,1-8.186-3.17,10.255,10.255,0,0,1-1.849-2.64l-40.667-91.37a26.553,26.553,0,0,1-.6-6.54,46.111,46.111,0,0,1,.793-7.66,38.041,38.041,0,0,1,2.046-7.19,15.529,15.529,0,0,1,3.3-5.29l52.419-52.41q4.62-4.62,9.044-5.35a8.465,8.465,0,0,1,7.724,2.57,15.067,15.067,0,0,1,2.9,4.23l39.743,89.39A18.277,18.277,0,0,1,944.285,1294.77Zm-19.079-81.8,32.877-32.87-10.827,79.48a19.444,19.444,0,0,0,.924,4.23,26.769,26.769,0,0,0,1.32,3.56q1.586,3.7,3.829,7.93a43.324,43.324,0,0,0,4.886,7.39,16.455,16.455,0,0,0,5.215,4.42,3.887,3.887,0,0,0,4.819-.99l71.171-71.17-16.11-36.17-34.067,34.06,10.3-85.03a35.27,35.27,0,0,0-.99-4.03,24.807,24.807,0,0,0-1.254-3.5,18.219,18.219,0,0,0-5.348-6.4,25.164,25.164,0,0,0-8.054-4.22,20.671,20.671,0,0,0-8.781-.86,12.253,12.253,0,0,0-7.394,3.56l-60.472,60.48ZM1103.06,1074.2l10.69-10.69,12.42,27.99-10.7,10.7,11.36,25.35-27.73,27.72-11.36-25.35-48.85,48.86-7-15.72-0.66-114.21,41.86-41.85Zm-27.73,27.73-10.69-23.9,1.71,32.88Zm68.79-165.969,60.87,98.629,0.66,0.66q3.045,3.045,5.94,2.91a18.358,18.358,0,0,0,4.89-.79l0.66-.14,38.16-38.155a9.786,9.786,0,0,0,2.84-6.272,34.5,34.5,0,0,0-.07-7.064l-26.54-158.312-34.06,34.066,16.63,99.555-36.31-58.756Zm162.94,11.356-35.79-80.411-15.58,15.58-10.3-47.8,41.73-41.723,53.74,120.549Zm78.43-78.43-33.81,33.8-16.1-36.178,33.8-33.8Zm21.65-77.374c1.14,1.145,2.11,1.32,2.9.528l12.28-12.279a4,4,0,0,0,.8-2.509,6.273,6.273,0,0,0-.27-2.773l-16.9-38.026a2.468,2.468,0,0,0-.79-1.057c-0.79-.792-1.63-0.746-2.51.133l-12.28,12.279a3.613,3.613,0,0,0-1.12,2.443,4.919,4.919,0,0,0,.46,2.442l16.9,38.027a1.49,1.49,0,0,0,.53.792h0Zm61.2-20.8a36.655,36.655,0,0,1-3.1,16.307,21.109,21.109,0,0,1-4.23,6.338l-52.42,52.418a11.2,11.2,0,0,1-8.58,3.3,11.517,11.517,0,0,1-8.19-3.169,10.168,10.168,0,0,1-1.85-2.641L1349.31,751.9a26.621,26.621,0,0,1-.6-6.536,46.238,46.238,0,0,1,.8-7.658,37.944,37.944,0,0,1,2.04-7.2,15.508,15.508,0,0,1,3.3-5.281l52.42-52.419q4.62-4.62,9.05-5.347a8.457,8.457,0,0,1,7.72,2.574,15.048,15.048,0,0,1,2.91,4.225l39.74,89.389A18.279,18.279,0,0,1,1468.34,770.717ZM185.023,1183.67L140.555,978.06l106.418,143.66,87.034-87.03L307.4,811.212l77.153,172.929,80.193-80.193-154.686-347L191.484,675.53l27.744,241.34-116.3-152.786-103,103L85.446,1283.25ZM592.451,776.247l-103-231.459,46.368-46.368-0.76,132.262,1.9,3.421a52.608,52.608,0,0,0,3.8,5.321,31.989,31.989,0,0,0,10.642,6.841,102.769,102.769,0,0,1,11.782,5.7l123.9,29.645L794.644,574.053,630.837,534.906l1.52-133.782q0.375-7.215-3.61-16.533-3.991-9.3-5.891-14.252l-2.661-5.7a48.837,48.837,0,0,0-10.642-15.2A82.913,82.913,0,0,0,591.5,335.943a79.211,79.211,0,0,0-21.283-8.361,59.02,59.02,0,0,0-20.9-1.141,29.305,29.305,0,0,0-17.293,8.552L341.229,525.785l154.685,347Zm72.212-383.865,91.6-91.6,36.106,80.193-91.6,91.6Zm259.963,51.689-103-231.459L776.782,257.46,747.137,119.877l120.1-120.1,154.683,347Z"/>
</svg>
