0
SECTION
2
HEADER
9
$INSUNITS
70
4
9
$ACADVER
1
AC1014
9
$HANDSEED
5
FFFF
0
ENDSEC
0
SECTION
2
TABLES
0
TABLE
2
VPORT
5
8
100
AcDbSymbolTable
0
ENDTAB
0
TABLE
2
LTYPE
5
5
100
AcDbSymbolTable
0
LTYPE
5
14
100
AcDbSymbolTableRecord
100
AcDbLinetypeTableRecord
2
BYBLOCK
70
0
0
LTYPE
5
15
100
AcDbSymbolTableRecord
100
AcDbLinetypeTableRecord
2
BYLAYER
70
0
0
ENDTAB
0
TABLE
2
LAYER
5
2
100
AcDbSymbolTable
70
2
0
LAYER
5
50
100
AcDbSymbolTableRecord
100
AcDbLayerTableRecord
2
0
70
0
6
CONTINUOUS
0
ENDTAB
0
TABLE
2
STYLE
5
3
100
AcDbSymbolTable
70
1
0
STYLE
5
11
100
AcDbSymbolTableRecord
100
AcDbTextStyleTableRecord
2
STANDARD
70
0
0
ENDTAB
0
TABLE
2
VIEW
5
6
100
AcDbSymbolTable
70
0
0
ENDTAB
0
TABLE
2
UCS
5
7
100
AcDbSymbolTable
70
0
0
ENDTAB
0
TABLE
2
APPID
5
9
100
AcDbSymbolTable
70
2
0
APPID
5
12
100
AcDbSymbolTableRecord
100
AcDbRegAppTableRecord
2
ACAD
70
0
0
ENDTAB
0
TABLE
2
DIMSTYLE
5
A
100
AcDbSymbolTable
70
1
0
ENDTAB
0
TABLE
2
BLOCK_RECORD
5
1
100
AcDbSymbolTable
70
1
0
BLOCK_RECORD
5
1F
100
AcDbSymbolTableRecord
100
AcDbBlockTableRecord
2
*MODEL_SPACE
0
BLOCK_RECORD
5
1B
100
AcDbSymbolTableRecord
100
AcDbBlockTableRecord
2
*PAPER_SPACE
0
ENDTAB
0
ENDSEC
0
SECTION
2
BLOCKS
0
BLOCK
5
20
100
AcDbEntity
100
AcDbBlockBegin
2
*MODEL_SPACE
0
ENDBLK
5
21
100
AcDbEntity
100
AcDbBlockEnd
0
BLOCK
5
1C
100
AcDbEntity
100
AcDbBlockBegin
2
*PAPER_SPACE
0
ENDBLK
5
1D
100
AcDbEntity
100
AcDbBlockEnd
0
ENDSEC
0
SECTION
2
ENTITIES
0
LWPOLYLINE
5
100
100
AcDbEntity
8
0
100
AcDbPolyline
90
23
70
1
43
0.0
10
-43.642517659782889
20
7.3014032943960405
42
0.28052641498844083
10
-42.170883270860891
20
5.8307845980344215
42
-0.78046164594961831
10
-42.085786437626894
20
-5.8094750193111206
42
0.34199871311964364
10
-43.585786437626901
20
-7.7459666924148252
10
-43.585786437626908
20
-47.999999999999744
42
0.41421356237309243
10
-41.585786437626915
20
-49.999999999999744
10
41.585786437626915
20
-49.99999999999973
42
0.41421356237309243
10
43.585786437626915
20
-47.999999999999723
10
43.585786437626908
20
-7.5894395830836814
42
0.34199871311964358
10
42.085786437626908
20
-5.6529479099799822
42
-0.77459666924148285
10
42.085786437626908
20
5.9660021286422698
42
0.34199871311964303
10
43.585786437626908
20
7.9024938017459778
10
43.585786437626908
20
71.000000000000014
42
0.41421356237309243
10
41.585786437626915
20
73.000000000000014
10
-41.585786437626915
20
73
42
0.41421356237309243
10
-43.585786437626915
20
71
10
-43.585786437626901
20
40.82842712474617
42
-0.41421356237309503
10
-45.585786437626901
20
38.82842712474617
10
-47.085786437626922
20
38.828427124746185
42
0.41421356237309243
10
-49.085786437626922
20
36.828427124746177
10
-49.085786437626915
20
10.828427124746183
42
0.41421356237309342
10
-47.085786437626922
20
8.8284271247461739
10
-45.585786437626901
20
8.8284271247461827
42
-0.34589331564309228
0
CIRCLE
5
101
100
AcDbEntity
8
0
100
AcDbCircle
10
24.248139115060656
20
-24.999427809096307
30
0
40
0.6999999999999984
210
0
220
-0
230
1
0
CIRCLE
5
102
100
AcDbEntity
8
0
100
AcDbCircle
10
13.24813911506044
20
-35.999427809096318
30
0
40
0.6999999999999984
210
0
220
-0
230
1
0
CIRCLE
5
103
100
AcDbEntity
8
0
100
AcDbCircle
10
14.721859673431679
20
-30.499427809096268
30
0
40
0.6999999999999984
210
0
220
-0
230
1
0
CIRCLE
5
104
100
AcDbEntity
8
0
100
AcDbCircle
10
24.248139115060447
20
-46.999427809096524
30
0
40
0.6999999999999984
210
0
220
-0
230
1
0
CIRCLE
5
105
100
AcDbEntity
8
0
100
AcDbCircle
10
33.774418556689518
20
-30.499427809096442
30
0
40
0.6999999999999984
210
0
220
-0
230
1
0
CIRCLE
5
106
100
AcDbEntity
8
0
100
AcDbCircle
10
-24.24086205527189
20
-25.018949767486301
30
0
40
0.70000000000000284
210
0
220
-0
230
1
0
CIRCLE
5
107
100
AcDbEntity
8
0
100
AcDbCircle
10
18.748139115060582
20
-26.473148367467445
30
0
40
0.6999999999999984
210
0
220
-0
230
1
0
CIRCLE
5
108
100
AcDbEntity
8
0
100
AcDbCircle
10
-18.740862055263776
20
-45.545229209113103
30
0
40
0.70000000000000284
210
0
220
-0
230
1
0
CIRCLE
5
109
100
AcDbEntity
8
0
100
AcDbCircle
10
-14.714582613640829
20
-30.518949767482596
30
0
40
0.70000000000000284
210
0
220
-0
230
1
0
CIRCLE
5
110
100
AcDbEntity
8
0
100
AcDbCircle
10
-29.74086205526385
20
-45.545229209117437
30
0
40
0.70000000000000284
210
0
220
-0
230
1
0
CIRCLE
5
111
100
AcDbEntity
8
0
100
AcDbCircle
10
29.748139115060699
20
-26.473148367467548
30
0
40
0.6999999999999984
210
0
220
-0
230
1
0
CIRCLE
5
112
100
AcDbEntity
8
0
100
AcDbCircle
10
-39.585786437626908
20
-45.99999999999973
30
0
40
1.6999999999999948
210
0
220
-0
230
1
0
CIRCLE
5
113
100
AcDbEntity
8
0
100
AcDbCircle
10
39.585786437626908
20
-45.99999999999973
30
0
40
1.6999999999999993
210
0
220
-0
230
1
0
CIRCLE
5
114
100
AcDbEntity
8
0
100
AcDbCircle
10
-35.240862055267634
20
-36.01894976749071
30
0
40
0.70000000000000284
210
0
220
-0
230
1
0
CIRCLE
5
115
100
AcDbEntity
8
0
100
AcDbCircle
10
24.248139115060546
20
-31.999427809096321
30
0
40
0.6999999999999984
210
0
220
-0
230
1
0
CIRCLE
5
116
100
AcDbEntity
8
0
100
AcDbCircle
10
23.585786437626908
20
69
30
0
40
1.6999999999999993
210
0
220
-0
230
1
0
CIRCLE
5
117
100
AcDbEntity
8
0
100
AcDbCircle
10
-29.740862055271336
20
-26.492670325859642
30
0
40
0.70000000000000284
210
0
220
-0
230
1
0
CIRCLE
5
118
100
AcDbEntity
8
0
100
AcDbCircle
10
-24.240862055269197
20
-32.018949767486319
30
0
40
0.6999999999999984
210
0
220
-0
230
1
0
CIRCLE
5
119
100
AcDbEntity
8
0
100
AcDbCircle
10
-14.714582613636512
20
-41.518949767482674
30
0
40
0.70000000000000284
210
0
220
-0
230
1
0
CIRCLE
5
120
100
AcDbEntity
8
0
100
AcDbCircle
10
33.774418556689419
20
-41.499427809096552
30
0
40
0.6999999999999984
210
0
220
-0
230
1
0
CIRCLE
5
121
100
AcDbEntity
8
0
100
AcDbCircle
10
-33.76714149689429
20
-41.518949767490156
30
0
40
0.70000000000000284
210
0
220
-0
230
1
0
CIRCLE
5
122
100
AcDbEntity
8
0
100
AcDbCircle
10
-13.240862055267486
20
-36.018949767482049
30
0
40
0.70000000000000284
210
0
220
-0
230
1
0
CIRCLE
5
123
100
AcDbEntity
8
0
100
AcDbCircle
10
-33.76714149689861
20
-30.518949767490081
30
0
40
0.70000000000000284
210
0
220
-0
230
1
0
CIRCLE
5
124
100
AcDbEntity
8
0
100
AcDbCircle
10
14.721859673431588
20
-41.499427809096375
30
0
40
0.6999999999999984
210
0
220
-0
230
1
0
CIRCLE
5
125
100
AcDbEntity
8
0
100
AcDbCircle
10
-23.585786437626908
20
69
30
0
40
1.6999999999999993
210
0
220
-0
230
1
0
CIRCLE
5
126
100
AcDbEntity
8
0
100
AcDbCircle
10
-18.740862055271265
20
-26.492670325855329
30
0
40
0.70000000000000284
210
0
220
-0
230
1
0
CIRCLE
5
127
100
AcDbEntity
8
0
100
AcDbCircle
10
29.748139115060521
20
-45.525707250725382
30
0
40
0.6999999999999984
210
0
220
-0
230
1
0
CIRCLE
5
128
100
AcDbEntity
8
0
100
AcDbCircle
10
-24.240862055263229
20
-47.018949767486461
30
0
40
0.70000000000000284
210
0
220
-0
230
1
0
CIRCLE
5
129
100
AcDbEntity
8
0
100
AcDbCircle
10
35.24813911506066
20
-35.99942780909651
30
0
40
0.6999999999999984
210
0
220
-0
230
1
0
CIRCLE
5
130
100
AcDbEntity
8
0
100
AcDbCircle
10
18.748139115060411
20
-45.525707250725283
30
0
40
0.6999999999999984
210
0
220
-0
230
1
0
LWPOLYLINE
5
131
100
AcDbEntity
8
0
100
AcDbPolyline
90
4
70
1
43
0.0
10
-4.875
20
66.949999999999989
10
-5.1250000000000009
20
66.949999999999989
10
-5.1250000000000009
20
70.248660687473176
10
-4.875
20
70.248660687473176
0
LWPOLYLINE
5
132
100
AcDbEntity
8
0
100
AcDbPolyline
90
4
70
1
43
0.0
10
-2.8750000000000004
20
66.949999999999989
10
-3.125
20
66.949999999999989
10
-3.125
20
70.248660687473176
10
-2.8750000000000004
20
70.248660687473176
0
LWPOLYLINE
5
133
100
AcDbEntity
8
0
100
AcDbPolyline
90
4
70
1
43
0.0
10
-0.875
20
66.949999999999989
10
-1.125
20
66.949999999999989
10
-1.125
20
70.248660687473176
10
-0.875
20
70.248660687473176
0
LWPOLYLINE
5
134
100
AcDbEntity
8
0
100
AcDbPolyline
90
4
70
1
43
0.0
10
1.1250000000000002
20
66.949999999999989
10
0.87500000000000022
20
66.949999999999989
10
0.87500000000000022
20
70.248660687473176
10
1.1250000000000002
20
70.248660687473176
0
LWPOLYLINE
5
135
100
AcDbEntity
8
0
100
AcDbPolyline
90
4
70
1
43
0.0
10
3.125
20
66.949999999999989
10
2.8750000000000004
20
66.949999999999989
10
2.8750000000000004
20
70.248660687473176
10
3.125
20
70.248660687473176
0
LWPOLYLINE
5
136
100
AcDbEntity
8
0
100
AcDbPolyline
90
4
70
1
43
0.0
10
5.1250000000000009
20
66.949999999999989
10
4.875
20
66.949999999999989
10
4.875
20
70.248660687473176
10
5.1250000000000009
20
70.248660687473176
0
LWPOLYLINE
5
137
100
AcDbEntity
8
0
100
AcDbPolyline
90
6
70
1
43
0.0
10
7.8900000000000006
20
67.400000000000006
10
6.3766969722017652
20
67.400000000000006
10
6.3766969722017652
20
68.599999999999994
10
7.8900000000000006
20
68.600000000000009
42
-0.4142135623730625
10
8.0899999999999999
20
68.400000000000006
10
8.0899999999999999
20
67.599999999999994
42
-0.41421356237312756
0
LWPOLYLINE
5
138
100
AcDbEntity
8
0
100
AcDbPolyline
90
6
70
1
43
0.0
10
-7.8900000000000006
20
68.599999999999994
10
-6.3766969722017652
20
68.599999999999994
10
-6.3766969722017652
20
67.400000000000006
10
-7.8900000000000015
20
67.400000000000006
42
-0.41421356237274548
10
-8.0899999999997689
20
67.599999999999994
10
-8.0900000000001295
20
68.400000000000006
42
-0.41421356237329016
0
LWPOLYLINE
5
139
100
AcDbEntity
8
0
100
AcDbPolyline
90
4
70
1
43
0.0
10
-2.2142831697099981
20
66.949999999999989
10
-2.7857168302900019
20
66.949999999999989
10
-2.7857168302900019
20
69.049999999999997
10
-2.2142831697099981
20
69.049999999999997
0
LWPOLYLINE
5
140
100
AcDbEntity
8
0
100
AcDbPolyline
90
4
70
1
43
0.0
10
-3.2142831697099981
20
66.949999999999989
10
-3.7857168302900019
20
66.949999999999989
10
-3.7857168302900019
20
69.049999999999997
10
-3.2142831697099981
20
69.049999999999997
0
LWPOLYLINE
5
141
100
AcDbEntity
8
0
100
AcDbPolyline
90
4
70
1
43
0.0
10
-0.21428316970999833
20
66.949999999999989
10
-0.78571683029000172
20
66.949999999999989
10
-0.78571683029000172
20
69.049999999999997
10
-0.21428316970999833
20
69.049999999999997
0
LWPOLYLINE
5
142
100
AcDbEntity
8
0
100
AcDbPolyline
90
4
70
1
43
0.0
10
-1.2142831697099981
20
66.949999999999989
10
-1.7857168302900019
20
66.949999999999989
10
-1.7857168302900019
20
69.049999999999997
10
-1.2142831697099981
20
69.049999999999997
0
LWPOLYLINE
5
143
100
AcDbEntity
8
0
100
AcDbPolyline
90
4
70
1
43
0.0
10
1.7857168302900019
20
66.949999999999989
10
1.2142831697099981
20
66.949999999999989
10
1.2142831697099981
20
69.049999999999997
10
1.7857168302900019
20
69.049999999999997
0
LWPOLYLINE
5
144
100
AcDbEntity
8
0
100
AcDbPolyline
90
4
70
1
43
0.0
10
0.78571683029000172
20
66.949999999999989
10
0.21428316970999833
20
66.949999999999989
10
0.21428316970999833
20
69.049999999999997
10
0.78571683029000172
20
69.049999999999997
0
LWPOLYLINE
5
145
100
AcDbEntity
8
0
100
AcDbPolyline
90
4
70
1
43
0.0
10
3.7857168302900019
20
66.949999999999989
10
3.2142831697099981
20
66.949999999999989
10
3.2142831697099981
20
69.049999999999997
10
3.7857168302900019
20
69.049999999999997
0
LWPOLYLINE
5
146
100
AcDbEntity
8
0
100
AcDbPolyline
90
4
70
1
43
0.0
10
2.7857168302900019
20
66.949999999999989
10
2.2142831697099981
20
66.949999999999989
10
2.2142831697099981
20
69.049999999999997
10
2.7857168302900019
20
69.049999999999997
0
LWPOLYLINE
5
147
100
AcDbEntity
8
0
100
AcDbPolyline
90
4
70
1
43
0.0
10
4.7857168302900019
20
66.949999999999989
10
4.2142831697099989
20
66.949999999999989
10
4.2142831697099989
20
69.049999999999997
10
4.7857168302900019
20
69.049999999999997
0
LWPOLYLINE
5
148
100
AcDbEntity
8
0
100
AcDbPolyline
90
4
70
1
43
0.0
10
6.1700000000000017
20
66.949999999999989
10
5.2142831697099989
20
66.949999999999989
10
5.2142831697099989
20
69.049999999999997
10
6.1700000000000035
20
69.049999999999997
0
LWPOLYLINE
5
149
100
AcDbEntity
8
0
100
AcDbPolyline
90
4
70
1
43
0.0
10
-4.2142831697099989
20
66.949999999999989
10
-4.7857168302900019
20
66.949999999999989
10
-4.7857168302900019
20
69.049999999999997
10
-4.2142831697099989
20
69.049999999999997
0
LWPOLYLINE
5
150
100
AcDbEntity
8
0
100
AcDbPolyline
90
4
70
1
43
0.0
10
-5.2142831697099989
20
66.949999999999989
10
-6.1700000000000017
20
66.949999999999989
10
-6.1700000000000035
20
69.049999999999997
10
-5.2142831697099989
20
69.049999999999997
0
LWPOLYLINE
5
151
100
AcDbEntity
8
0
100
AcDbPolyline
90
4
70
1
43
0.0
10
3.875
20
69.25
10
4.125
20
69.25
10
4.125
20
65.751738636790492
10
3.875
20
65.751738636790492
0
LWPOLYLINE
5
152
100
AcDbEntity
8
0
100
AcDbPolyline
90
4
70
1
43
0.0
10
1.8750000000000002
20
69.25
10
2.125
20
69.25
10
2.125
20
65.751738636790492
10
1.8750000000000002
20
65.751738636790492
0
LWPOLYLINE
5
153
100
AcDbEntity
8
0
100
AcDbPolyline
90
4
70
1
43
0.0
10
-0.1249999999999999
20
69.25
10
0.12500000000000011
20
69.25
10
0.12500000000000011
20
65.751738636790492
10
-0.1249999999999999
20
65.751738636790492
0
LWPOLYLINE
5
154
100
AcDbEntity
8
0
100
AcDbPolyline
90
4
70
1
43
0.0
10
-2.125
20
69.25
10
-1.875
20
69.25
10
-1.875
20
65.751738636790492
10
-2.125
20
65.751738636790492
0
LWPOLYLINE
5
155
100
AcDbEntity
8
0
100
AcDbPolyline
90
4
70
1
43
0.0
10
-4.125
20
69.25
10
-3.875
20
69.25
10
-3.875
20
65.751738636790492
10
-4.125
20
65.751738636790492
0
LWPOLYLINE
5
156
100
AcDbEntity
8
0
100
AcDbPolyline
90
14
70
1
43
0.0
10
17.926047349401106
20
29.498952650598874
10
16.376047349401105
20
29.498952650598874
10
16.376047349401105
20
29.648952650598879
10
18.926047349401109
20
29.648952650598872
10
18.926047349401106
20
28.448952650598869
42
-0.41421356237305601
10
18.876047349401105
20
28.398952650598872
10
18.576047349401104
20
28.398952650598872
42
-0.41421356237305601
10
18.526047349401107
20
28.448952650598869
10
18.526047349401107
20
28.498952650598874
42
0.99999999999999989
10
18.326047349401108
20
28.498952650598874
10
18.326047349401108
20
28.448952650598869
42
-0.41421356237305601
10
18.276047349401104
20
28.398952650598872
10
17.976047349401107
20
28.398952650598872
42
-0.41421356237305601
10
17.926047349401106
20
28.448952650598869
0
LWPOLYLINE
5
157
100
AcDbEntity
8
0
100
AcDbPolyline
90
14
70
1
43
0.0
10
16.376047349401162
20
56.498952650598888
10
17.926047349401163
20
56.498952650598881
10
17.926047349401163
20
57.548952650598878
42
-0.41421356237312101
10
17.976047349401167
20
57.598952650598882
10
18.276047349401168
20
57.598952650598875
42
-0.41421356237312101
10
18.326047349401165
20
57.548952650598878
10
18.326047349401165
20
57.498952650598874
42
0.99999999999999989
10
18.526047349401168
20
57.498952650598874
10
18.526047349401164
20
57.548952650598878
42
-0.41421356237312101
10
18.576047349401168
20
57.598952650598882
10
18.876047349401169
20
57.598952650598875
42
-0.41421356237312101
10
18.926047349401166
20
57.548952650598878
10
18.926047349401163
20
56.348952650598875
10
16.376047349401162
20
56.348952650598882
0
LWPOLYLINE
5
158
100
AcDbEntity
8
0
100
AcDbPolyline
90
204
70
1
43
0.0
10
16.426047349401117
20
33.673952650598878
10
15.576047349401119
20
33.673952650598878
10
15.576047349401119
20
33.823952650598883
10
16.426047349401117
20
33.823952650598883
10
16.426047349401117
20
34.173952650598878
10
15.576047349401119
20
34.173952650598878
10
15.576047349401119
20
34.323952650598876
10
16.426047349401117
20
34.323952650598876
10
16.42604734940112
20
34.673952650598878
10
15.57604734940112
20
34.673952650598878
10
15.57604734940112
20
34.823952650598883
10
16.42604734940112
20
34.823952650598876
10
16.42604734940112
20
35.173952650598878
10
15.57604734940112
20
35.173952650598885
10
15.57604734940112
20
35.323952650598883
10
16.42604734940112
20
35.323952650598883
10
16.426047349401124
20
35.673952650598878
10
15.576047349401122
20
35.673952650598878
10
15.576047349401122
20
35.823952650598883
10
16.426047349401124
20
35.823952650598876
10
16.426047349401124
20
36.173952650598878
10
15.576047349401122
20
36.173952650598878
10
15.576047349401122
20
36.323952650598883
10
16.426047349401124
20
36.323952650598876
10
16.426047349401124
20
36.673952650598878
10
15.576047349401126
20
36.673952650598878
10
15.576047349401126
20
36.823952650598883
10
16.426047349401124
20
36.823952650598876
10
16.426047349401124
20
37.173952650598878
10
15.576047349401126
20
37.173952650598878
10
15.576047349401126
20
37.323952650598883
10
16.426047349401124
20
37.323952650598883
10
16.426047349401127
20
37.673952650598878
10
15.576047349401128
20
37.673952650598885
10
15.576047349401128
20
37.823952650598883
10
16.426047349401127
20
37.823952650598883
10
16.426047349401127
20
38.173952650598878
10
15.576047349401128
20
38.173952650598878
10
15.576047349401128
20
38.323952650598883
10
16.426047349401127
20
38.323952650598876
10
16.426047349401131
20
38.673952650598878
10
15.576047349401129
20
38.673952650598878
10
15.576047349401129
20
38.823952650598883
10
16.426047349401131
20
38.823952650598883
10
16.426047349401131
20
39.173952650598878
10
15.576047349401129
20
39.173952650598885
10
15.576047349401129
20
39.323952650598883
10
16.426047349401131
20
39.323952650598876
10
16.426047349401131
20
39.673952650598878
10
15.576047349401133
20
39.673952650598878
10
15.576047349401133
20
39.823952650598883
10
16.426047349401131
20
39.823952650598883
10
16.426047349401131
20
40.173952650598878
10
15.576047349401133
20
40.173952650598885
10
15.576047349401133
20
40.323952650598883
10
16.426047349401131
20
40.323952650598883
10
16.426047349401131
20
40.673952650598878
10
15.576047349401133
20
40.673952650598878
10
15.576047349401135
20
40.823952650598876
10
16.426047349401134
20
40.823952650598876
10
16.426047349401134
20
41.173952650598878
10
15.576047349401135
20
41.173952650598878
10
15.576047349401135
20
41.323952650598883
10
16.426047349401134
20
41.323952650598876
10
16.426047349401134
20
41.673952650598878
10
15.576047349401135
20
41.673952650598878
10
15.576047349401136
20
41.823952650598883
10
16.426047349401138
20
41.823952650598883
10
16.426047349401138
20
42.173952650598878
10
15.576047349401136
20
42.173952650598878
10
15.576047349401136
20
42.323952650598883
10
16.426047349401138
20
42.323952650598883
10
16.426047349401138
20
42.673952650598885
10
15.576047349401136
20
42.673952650598885
10
15.576047349401138
20
42.823952650598883
10
16.426047349401138
20
42.823952650598883
10
16.426047349401138
20
43.173952650598878
10
15.576047349401138
20
43.173952650598878
10
15.576047349401138
20
43.323952650598876
10
16.426047349401138
20
43.323952650598876
10
16.426047349401138
20
43.673952650598878
10
15.576047349401138
20
43.673952650598878
10
15.576047349401138
20
43.823952650598883
10
16.426047349401138
20
43.823952650598883
10
16.426047349401141
20
44.173952650598878
10
15.57604734940114
20
44.173952650598878
10
15.57604734940114
20
44.323952650598883
10
16.426047349401141
20
44.323952650598883
10
16.426047349401141
20
44.673952650598878
10
15.57604734940114
20
44.673952650598885
10
15.57604734940114
20
44.823952650598883
10
16.426047349401141
20
44.823952650598883
10
16.426047349401141
20
45.173952650598885
10
15.576047349401144
20
45.173952650598885
10
15.576047349401144
20
45.323952650598883
10
16.426047349401141
20
45.323952650598883
10
16.426047349401141
20
45.673952650598878
10
15.576047349401144
20
45.673952650598878
10
15.576047349401144
20
45.823952650598876
10
16.426047349401141
20
45.823952650598876
10
16.426047349401145
20
46.173952650598878
10
15.576047349401145
20
46.173952650598878
10
15.576047349401145
20
46.323952650598883
10
16.426047349401145
20
46.323952650598876
10
16.426047349401145
20
46.673952650598878
10
15.576047349401145
20
46.673952650598878
10
15.576047349401145
20
46.823952650598883
10
16.426047349401145
20
46.823952650598883
10
16.426047349401149
20
47.173952650598878
10
15.576047349401147
20
47.173952650598885
10
15.576047349401147
20
47.323952650598883
10
16.426047349401149
20
47.323952650598883
10
16.426047349401149
20
47.673952650598885
10
15.576047349401147
20
47.673952650598885
10
15.576047349401147
20
47.823952650598883
10
16.426047349401149
20
47.823952650598883
10
16.426047349401149
20
48.173952650598878
10
15.576047349401151
20
48.173952650598878
10
15.576047349401151
20
48.323952650598883
10
16.426047349401149
20
48.323952650598876
10
16.426047349401149
20
48.673952650598878
10
15.576047349401151
20
48.673952650598892
10
15.576047349401151
20
48.823952650598883
10
16.426047349401149
20
48.823952650598883
10
16.426047349401149
20
49.173952650598878
10
15.576047349401151
20
49.173952650598878
10
15.576047349401152
20
49.323952650598883
10
16.426047349401152
20
49.323952650598883
10
16.426047349401152
20
49.673952650598878
10
15.576047349401152
20
49.673952650598885
10
15.576047349401152
20
49.823952650598883
10
16.426047349401152
20
49.823952650598883
10
16.426047349401152
20
50.173952650598878
10
15.576047349401152
20
50.173952650598885
10
15.576047349401154
20
50.323952650598883
10
16.426047349401152
20
50.323952650598883
10
16.426047349401152
20
50.673952650598878
10
15.576047349401154
20
50.673952650598878
10
15.576047349401154
20
50.823952650598883
10
16.426047349401152
20
50.823952650598876
10
16.426047349401152
20
51.173952650598878
10
15.576047349401154
20
51.173952650598878
10
15.576047349401156
20
51.323952650598883
10
16.426047349401156
20
51.323952650598876
10
16.426047349401156
20
51.673952650598878
10
15.576047349401156
20
51.673952650598885
10
15.576047349401156
20
51.823952650598883
10
16.426047349401156
20
51.823952650598883
10
16.426047349401156
20
52.173952650598885
10
15.576047349401156
20
52.173952650598885
10
15.576047349401158
20
52.323952650598883
10
16.426047349401159
20
52.323952650598883
10
16.426047349401159
20
52.673952650598878
10
15.576047349401158
20
52.673952650598885
10
15.576047349401158
20
52.823952650598883
10
16.426047349401159
20
52.823952650598883
10
16.426047349401159
20
53.173952650598878
10
15.576047349401158
20
53.173952650598878
10
15.576047349401158
20
53.323952650598876
10
16.426047349401159
20
53.323952650598876
10
16.426047349401159
20
53.673952650598878
10
15.576047349401161
20
53.673952650598878
10
15.576047349401161
20
53.823952650598876
10
16.426047349401159
20
53.823952650598876
10
16.426047349401159
20
54.173952650598878
10
15.576047349401161
20
54.173952650598878
10
15.576047349401161
20
54.323952650598883
10
16.426047349401159
20
54.323952650598883
10
16.426047349401163
20
54.673952650598885
10
15.576047349401163
20
54.673952650598885
10
15.576047349401163
20
54.823952650598883
10
16.426047349401163
20
54.823952650598883
10
16.426047349401163
20
55.173952650598885
10
15.576047349401163
20
55.173952650598885
10
15.576047349401163
20
55.323952650598883
10
16.426047349401163
20
55.323952650598883
10
16.426047349401166
20
56.098952650598889
10
20.976047349401163
20
56.098952650598868
10
20.97604734940111
20
29.898952650598865
10
16.426047349401109
20
29.898952650598876
10
16.426047349401113
20
30.673952650598881
10
15.576047349401112
20
30.673952650598881
10
15.576047349401112
20
30.823952650598876
10
16.426047349401113
20
30.823952650598876
10
16.426047349401113
20
31.173952650598878
10
15.576047349401115
20
31.173952650598878
10
15.576047349401115
20
31.32395265059888
10
16.426047349401113
20
31.32395265059888
10
16.426047349401113
20
31.673952650598878
10
15.576047349401115
20
31.673952650598878
10
15.576047349401115
20
31.82395265059888
10
16.426047349401113
20
31.82395265059888
10
16.426047349401113
20
32.173952650598878
10
15.576047349401115
20
32.173952650598878
10
15.576047349401117
20
32.323952650598883
10
16.426047349401117
20
32.323952650598883
10
16.426047349401117
20
32.673952650598878
10
15.576047349401117
20
32.673952650598878
10
15.576047349401117
20
32.823952650598883
10
16.426047349401117
20
32.823952650598883
10
16.426047349401117
20
33.173952650598878
10
15.576047349401117
20
33.173952650598878
10
15.576047349401119
20
33.323952650598883
10
16.426047349401117
20
33.323952650598876
0
ENDSEC
0
SECTION
2
OBJECTS
0
DICTIONARY
5
C
100
AcDbDictionary
3
ACAD_GROUP
350
D
3
ACAD_MLINESTYLE
350
17
0
DICTIONARY
5
D
100
AcDbDictionary
0
DICTIONARY
5
1A
330
C
100
AcDbDictionary
0
DICTIONARY
5
17
100
AcDbDictionary
0
ENDSEC
0
EOF
